<svg width="31" height="20" viewBox="0 0 31 20" fill="none" xmlns="http://www.w3.org/2000/svg">
<path d="M20.2401 1.32297H27.9756V3.25164H20.2401V1.32297ZM12.4892 8.95397C14.1991 8.11317 15.0948 6.83403 15.0948 4.85754C15.0948 0.948396 12.2643 0 8.99562 0H0V19.6214H9.24765C12.7141 19.6214 15.9672 17.908 15.9672 13.9231C15.9672 11.4605 14.835 9.63937 12.4892 8.95397V8.95397ZM4.19537 3.34728H8.13096C9.64703 3.34728 11.008 3.78163 11.008 5.59075C11.008 7.25643 9.94947 7.92588 8.44891 7.92588H4.19537V3.34728ZM8.6738 16.2901H4.19149V10.8866H8.76298C10.6086 10.8866 11.7757 11.6796 11.7757 13.688C11.7757 15.6645 10.3837 16.2901 8.6738 16.2901V16.2901ZM31 12.7237C31 8.51963 28.6076 5.01694 24.2804 5.01694C20.0734 5.01694 17.2119 8.27256 17.2119 12.5403C17.2119 16.9635 19.9222 20 24.2804 20C27.5801 20 29.7166 18.4738 30.7441 15.2182H27.3979C27.0334 16.4336 25.5522 17.0711 24.4006 17.0711C22.175 17.0711 21.0118 15.7322 21.0118 13.4569H30.9729C30.9845 13.2218 31 12.9747 31 12.7237V12.7237ZM21.0118 10.9942C21.132 9.12532 22.3456 7.95776 24.1602 7.95776C26.0679 7.95776 27.0218 9.10938 27.1885 10.9942H21.0118Z" fill="black"/>
</svg>
