<svg width="25" height="24" viewBox="0 0 25 24" fill="none" xmlns="http://www.w3.org/2000/svg">
<path fill-rule="evenodd" clip-rule="evenodd" d="M7.84216 0.072C9.12179 0.0130909 9.52979 0 12.7894 0C16.0491 0 16.4571 0.0141818 17.7356 0.072C19.0142 0.129818 19.8869 0.333818 20.6505 0.629455C21.4502 0.931636 22.1756 1.404 22.7756 2.01491C23.3865 2.61382 23.8578 3.33818 24.1589 4.13891C24.4556 4.90255 24.6585 5.77527 24.7174 7.05164C24.7763 8.33345 24.7894 8.74145 24.7894 12C24.7894 15.2596 24.7752 15.6676 24.7174 16.9473C24.6596 18.2236 24.4556 19.0964 24.1589 19.86C23.8578 20.6608 23.3857 21.3864 22.7756 21.9862C22.1756 22.5971 21.4502 23.0684 20.6505 23.3695C19.8869 23.6662 19.0142 23.8691 17.7378 23.928C16.4571 23.9869 16.0491 24 12.7894 24C9.52979 24 9.12179 23.9858 7.84216 23.928C6.56579 23.8702 5.69307 23.6662 4.92943 23.3695C4.12861 23.0683 3.40305 22.5963 2.80325 21.9862C2.19275 21.3869 1.72032 20.6617 1.41888 19.8611C1.12325 19.0975 0.920338 18.2247 0.861429 16.9484C0.80252 15.6665 0.789429 15.2585 0.789429 12C0.789429 8.74036 0.803611 8.33236 0.861429 7.05382C0.919247 5.77527 1.12325 4.90255 1.41888 4.13891C1.72076 3.33827 2.19356 2.61307 2.80434 2.01382C3.40329 1.40346 4.12813 0.931029 4.92834 0.629455C5.69197 0.333818 6.5647 0.130909 7.84107 0.072H7.84216ZM17.6385 2.232C16.3731 2.17418 15.9934 2.16218 12.7894 2.16218C9.58543 2.16218 9.20579 2.17418 7.94034 2.232C6.76979 2.28545 6.13488 2.48073 5.71161 2.64545C5.15197 2.86364 4.75161 3.12218 4.33161 3.54218C3.93348 3.92951 3.62708 4.40104 3.43488 4.92218C3.27016 5.34545 3.07488 5.98036 3.02143 7.15091C2.96361 8.41636 2.95161 8.796 2.95161 12C2.95161 15.204 2.96361 15.5836 3.02143 16.8491C3.07488 18.0196 3.27016 18.6545 3.43488 19.0778C3.62688 19.5982 3.93343 20.0705 4.33161 20.4578C4.71888 20.856 5.19125 21.1625 5.71161 21.3545C6.13488 21.5193 6.76979 21.7145 7.94034 21.768C9.20579 21.8258 9.58434 21.8378 12.7894 21.8378C15.9945 21.8378 16.3731 21.8258 17.6385 21.768C18.8091 21.7145 19.444 21.5193 19.8672 21.3545C20.4269 21.1364 20.8272 20.8778 21.2472 20.4578C21.6454 20.0705 21.952 19.5982 22.144 19.0778C22.3087 18.6545 22.504 18.0196 22.5574 16.8491C22.6152 15.5836 22.6272 15.204 22.6272 12C22.6272 8.796 22.6152 8.41636 22.5574 7.15091C22.504 5.98036 22.3087 5.34545 22.144 4.92218C21.9258 4.36255 21.6672 3.96218 21.2472 3.54218C20.8599 3.14408 20.3884 2.83768 19.8672 2.64545C19.444 2.48073 18.8091 2.28545 17.6385 2.232V2.232ZM11.2567 15.6993C12.1127 16.0556 13.0658 16.1037 13.9534 15.8353C14.8409 15.567 15.6077 14.9988 16.1228 14.2279C16.638 13.457 16.8695 12.5311 16.7778 11.6085C16.6862 10.6858 16.2771 9.82361 15.6203 9.16909C15.2017 8.7507 14.6955 8.43034 14.1382 8.23107C13.5808 8.0318 12.9863 7.95858 12.3972 8.01667C11.8082 8.07477 11.2394 8.26274 10.7318 8.56705C10.2241 8.87136 9.79024 9.28445 9.4614 9.77657C9.13255 10.2687 8.91691 10.8276 8.82999 11.413C8.74308 11.9985 8.78705 12.596 8.95874 13.1624C9.13044 13.7288 9.42559 14.2501 9.82294 14.6888C10.2203 15.1275 10.71 15.4726 11.2567 15.6993ZM8.42797 7.63855C9.00073 7.06579 9.68069 6.61146 10.429 6.30149C11.1774 5.99151 11.9794 5.83197 12.7894 5.83197C13.5994 5.83197 14.4015 5.99151 15.1498 6.30148C15.8982 6.61146 16.5781 7.06579 17.1509 7.63855C17.7236 8.2113 18.178 8.89126 18.4879 9.6396C18.7979 10.3879 18.9575 11.19 18.9575 12C18.9575 12.81 18.7979 13.6121 18.4879 14.3604C18.178 15.1087 17.7236 15.7887 17.1509 16.3615C15.9942 17.5182 14.4253 18.168 12.7894 18.168C11.1536 18.168 9.5847 17.5182 8.42797 16.3615C7.27124 15.2047 6.6214 13.6359 6.6214 12C6.6214 10.3641 7.27124 8.79528 8.42797 7.63855V7.63855ZM20.3254 6.75055C20.4674 6.61666 20.581 6.45565 20.6596 6.27706C20.7382 6.09847 20.7801 5.90593 20.783 5.71083C20.7858 5.51574 20.7495 5.32205 20.6761 5.14125C20.6028 4.96044 20.4939 4.79619 20.3559 4.65822C20.218 4.52026 20.0537 4.41137 19.8729 4.33802C19.6921 4.26467 19.4984 4.22834 19.3033 4.23118C19.1082 4.23403 18.9157 4.27599 18.7371 4.35458C18.5585 4.43317 18.3975 4.5468 18.2636 4.68873C18.0032 4.96476 17.8607 5.33141 17.8662 5.71083C17.8717 6.09026 18.0249 6.4526 18.2932 6.72092C18.5616 6.98924 18.9239 7.14243 19.3033 7.14796C19.6828 7.15349 20.0494 7.01093 20.3254 6.75055V6.75055Z" fill="black"/>
</svg>
