<svg width="518" height="368" viewBox="0 0 518 368" fill="none" xmlns="http://www.w3.org/2000/svg">
<path d="M64.782 106.966V105.4H55.89V118H57.69V112.906H64.008V111.358H57.69V106.966H64.782ZM67.752 106.624C68.436 106.624 68.922 106.12 68.922 105.472C68.922 104.86 68.418 104.374 67.752 104.374C67.086 104.374 66.582 104.878 66.582 105.508C66.582 106.138 67.086 106.624 67.752 106.624ZM66.888 118H68.616V108.46H66.888V118ZM79.4033 108.46V109.936C78.5933 108.892 77.2973 108.37 75.8753 108.37C73.1213 108.37 71.0333 110.224 71.0333 112.978C71.0333 115.732 73.1213 117.604 75.8753 117.604C77.2433 117.604 78.4853 117.118 79.3133 116.128V116.884C79.3133 119.044 78.2873 120.088 76.0373 120.088C74.6333 120.088 73.2473 119.602 72.3653 118.846L71.5373 120.178C72.5813 121.114 74.3453 121.6 76.0913 121.6C79.3313 121.6 81.0413 120.07 81.0413 116.704V108.46H79.4033ZM76.0733 116.092C74.1473 116.092 72.7793 114.814 72.7793 112.978C72.7793 111.124 74.1473 109.882 76.0733 109.882C77.9813 109.882 79.3493 111.124 79.3493 112.978C79.3493 114.814 77.9813 116.092 76.0733 116.092ZM96.2771 108.37C94.6571 108.37 93.3251 109.054 92.6051 110.134C91.9751 108.946 90.7511 108.37 89.2931 108.37C87.8531 108.37 86.6831 108.91 85.9991 109.882V108.46H84.3431V118H86.0711V113.086C86.0711 111.016 87.2051 109.918 88.9331 109.918C90.4991 109.918 91.3991 110.836 91.3991 112.708V118H93.1271V113.086C93.1271 111.016 94.2611 109.918 95.9891 109.918C97.5551 109.918 98.4551 110.836 98.4551 112.708V118H100.183V112.51C100.183 109.702 98.5991 108.37 96.2771 108.37ZM106.837 108.37C105.307 108.37 103.885 108.802 102.895 109.594L103.615 110.89C104.353 110.26 105.505 109.864 106.639 109.864C108.349 109.864 109.195 110.71 109.195 112.168V112.51H106.459C103.615 112.51 102.625 113.77 102.625 115.3C102.625 116.956 103.993 118.108 106.153 118.108C107.647 118.108 108.709 117.604 109.285 116.74V118H110.923V112.24C110.923 109.63 109.447 108.37 106.837 108.37ZM106.441 116.776C105.127 116.776 104.335 116.182 104.335 115.228C104.335 114.418 104.821 113.752 106.531 113.752H109.195V115.084C108.763 116.182 107.737 116.776 106.441 116.776Z" fill="black"/>
<path d="M217.304 17H219.194L213.47 4.4H211.688L205.982 17H207.836L209.222 13.85H215.918L217.304 17ZM209.852 12.41L212.57 6.236L215.288 12.41H209.852ZM228.006 3.644V8.9C227.214 7.874 226.026 7.37 224.676 7.37C221.886 7.37 219.852 9.314 219.852 12.23C219.852 15.146 221.886 17.108 224.676 17.108C226.08 17.108 227.304 16.568 228.078 15.488V17H229.734V3.644H228.006ZM224.82 15.596C222.984 15.596 221.598 14.264 221.598 12.23C221.598 10.196 222.984 8.882 224.82 8.882C226.638 8.882 228.024 10.196 228.024 12.23C228.024 14.264 226.638 15.596 224.82 15.596ZM237.089 17.108C239.951 17.108 242.039 15.074 242.039 12.23C242.039 9.386 239.951 7.37 237.089 7.37C234.227 7.37 232.121 9.386 232.121 12.23C232.121 15.074 234.227 17.108 237.089 17.108ZM237.089 15.596C235.253 15.596 233.867 14.264 233.867 12.23C233.867 10.196 235.253 8.882 237.089 8.882C238.925 8.882 240.293 10.196 240.293 12.23C240.293 14.264 238.925 15.596 237.089 15.596ZM249.487 7.37C248.137 7.37 246.949 7.874 246.157 8.9V3.644H244.429V17H246.085V15.488C246.859 16.568 248.083 17.108 249.487 17.108C252.277 17.108 254.311 15.146 254.311 12.23C254.311 9.314 252.277 7.37 249.487 7.37ZM249.343 15.596C247.525 15.596 246.139 14.264 246.139 12.23C246.139 10.196 247.525 8.882 249.343 8.882C251.179 8.882 252.565 10.196 252.565 12.23C252.565 14.264 251.179 15.596 249.343 15.596ZM265.321 12.284C265.321 9.35 263.359 7.37 260.605 7.37C257.851 7.37 255.817 9.404 255.817 12.23C255.817 15.074 257.869 17.108 260.947 17.108C262.531 17.108 263.845 16.568 264.709 15.56L263.755 14.444C263.053 15.218 262.117 15.596 261.001 15.596C259.111 15.596 257.761 14.48 257.545 12.806H265.285C265.303 12.644 265.321 12.428 265.321 12.284ZM260.605 8.828C262.279 8.828 263.485 9.962 263.665 11.564H257.545C257.725 9.944 258.949 8.828 260.605 8.828ZM277.72 4.4H272.806V17H274.606V13.184H277.72C280.996 13.184 282.976 11.528 282.976 8.792C282.976 6.056 280.996 4.4 277.72 4.4ZM277.666 11.618H274.606V5.966H277.666C279.97 5.966 281.176 6.992 281.176 8.792C281.176 10.592 279.97 11.618 277.666 11.618ZM290.638 7.37C289.18 7.37 287.992 7.892 287.272 8.81V3.644H285.544V17H287.272V12.086C287.272 10.016 288.46 8.918 290.296 8.918C291.934 8.918 292.87 9.836 292.87 11.708V17H294.598V11.51C294.598 8.702 292.96 7.37 290.638 7.37ZM301.935 17.108C304.797 17.108 306.885 15.074 306.885 12.23C306.885 9.386 304.797 7.37 301.935 7.37C299.073 7.37 296.967 9.386 296.967 12.23C296.967 15.074 299.073 17.108 301.935 17.108ZM301.935 15.596C300.099 15.596 298.713 14.264 298.713 12.23C298.713 10.196 300.099 8.882 301.935 8.882C303.771 8.882 305.139 10.196 305.139 12.23C305.139 14.264 303.771 15.596 301.935 15.596ZM314.099 15.2C313.739 15.488 313.253 15.65 312.749 15.65C311.795 15.65 311.255 15.074 311.255 14.048V8.882H313.991V7.46H311.255V5.372H309.527V7.46H307.907V8.882H309.527V14.12C309.527 16.046 310.625 17.108 312.551 17.108C313.325 17.108 314.117 16.892 314.639 16.442L314.099 15.2ZM320.497 17.108C323.359 17.108 325.447 15.074 325.447 12.23C325.447 9.386 323.359 7.37 320.497 7.37C317.635 7.37 315.529 9.386 315.529 12.23C315.529 15.074 317.635 17.108 320.497 17.108ZM320.497 15.596C318.661 15.596 317.275 14.264 317.275 12.23C317.275 10.196 318.661 8.882 320.497 8.882C322.333 8.882 323.701 10.196 323.701 12.23C323.701 14.264 322.333 15.596 320.497 15.596ZM330.573 17.108C333.111 17.108 334.695 16.01 334.695 14.282C334.695 10.574 328.647 12.41 328.647 10.16C328.647 9.404 329.385 8.846 330.897 8.846C331.833 8.846 332.787 9.044 333.651 9.602L334.389 8.234C333.561 7.694 332.157 7.37 330.915 7.37C328.467 7.37 326.937 8.522 326.937 10.232C326.937 14.03 332.967 12.176 332.967 14.318C332.967 15.128 332.301 15.614 330.699 15.614C329.457 15.614 328.161 15.2 327.351 14.624L326.631 15.992C327.423 16.622 328.989 17.108 330.573 17.108ZM341.949 7.37C340.491 7.37 339.303 7.892 338.583 8.81V3.644H336.855V17H338.583V12.086C338.583 10.016 339.771 8.918 341.607 8.918C343.245 8.918 344.181 9.836 344.181 11.708V17H345.909V11.51C345.909 8.702 344.271 7.37 341.949 7.37ZM353.245 17.108C356.107 17.108 358.195 15.074 358.195 12.23C358.195 9.386 356.107 7.37 353.245 7.37C350.383 7.37 348.277 9.386 348.277 12.23C348.277 15.074 350.383 17.108 353.245 17.108ZM353.245 15.596C351.409 15.596 350.023 14.264 350.023 12.23C350.023 10.196 351.409 8.882 353.245 8.882C355.081 8.882 356.449 10.196 356.449 12.23C356.449 14.264 355.081 15.596 353.245 15.596ZM365.643 7.37C364.239 7.37 363.015 7.91 362.241 8.972V7.46H360.585V20.492H362.313V15.56C363.105 16.586 364.293 17.108 365.643 17.108C368.433 17.108 370.467 15.164 370.467 12.23C370.467 9.314 368.433 7.37 365.643 7.37ZM365.499 15.596C363.681 15.596 362.295 14.264 362.295 12.23C362.295 10.214 363.681 8.882 365.499 8.882C367.335 8.882 368.721 10.214 368.721 12.23C368.721 14.264 367.335 15.596 365.499 15.596Z" fill="black" fill-opacity="0.5"/>
<path d="M375.304 129H377.194L371.47 116.4H369.688L363.982 129H365.836L367.222 125.85H373.918L375.304 129ZM367.852 124.41L370.57 118.236L373.288 124.41H367.852ZM386.006 115.644V120.9C385.214 119.874 384.026 119.37 382.676 119.37C379.886 119.37 377.852 121.314 377.852 124.23C377.852 127.146 379.886 129.108 382.676 129.108C384.08 129.108 385.304 128.568 386.078 127.488V129H387.734V115.644H386.006ZM382.82 127.596C380.984 127.596 379.598 126.264 379.598 124.23C379.598 122.196 380.984 120.882 382.82 120.882C384.638 120.882 386.024 122.196 386.024 124.23C386.024 126.264 384.638 127.596 382.82 127.596ZM395.089 129.108C397.951 129.108 400.039 127.074 400.039 124.23C400.039 121.386 397.951 119.37 395.089 119.37C392.227 119.37 390.121 121.386 390.121 124.23C390.121 127.074 392.227 129.108 395.089 129.108ZM395.089 127.596C393.253 127.596 391.867 126.264 391.867 124.23C391.867 122.196 393.253 120.882 395.089 120.882C396.925 120.882 398.293 122.196 398.293 124.23C398.293 126.264 396.925 127.596 395.089 127.596ZM407.487 119.37C406.137 119.37 404.949 119.874 404.157 120.9V115.644H402.429V129H404.085V127.488C404.859 128.568 406.083 129.108 407.487 129.108C410.277 129.108 412.311 127.146 412.311 124.23C412.311 121.314 410.277 119.37 407.487 119.37ZM407.343 127.596C405.525 127.596 404.139 126.264 404.139 124.23C404.139 122.196 405.525 120.882 407.343 120.882C409.179 120.882 410.565 122.196 410.565 124.23C410.565 126.264 409.179 127.596 407.343 127.596ZM423.321 124.284C423.321 121.35 421.359 119.37 418.605 119.37C415.851 119.37 413.817 121.404 413.817 124.23C413.817 127.074 415.869 129.108 418.947 129.108C420.531 129.108 421.845 128.568 422.709 127.56L421.755 126.444C421.053 127.218 420.117 127.596 419.001 127.596C417.111 127.596 415.761 126.48 415.545 124.806H423.285C423.303 124.644 423.321 124.428 423.321 124.284ZM418.605 120.828C420.279 120.828 421.485 121.962 421.665 123.564H415.545C415.725 121.944 416.949 120.828 418.605 120.828ZM430.806 129H432.606V116.4H430.806V129ZM436.126 129H437.854V115.644H436.126V129ZM441.154 129H442.882V115.644H441.154V129ZM453.345 119.46V124.392C453.345 126.444 452.193 127.56 450.393 127.56C448.755 127.56 447.819 126.624 447.819 124.752V119.46H446.091V124.95C446.091 127.758 447.729 129.108 450.195 129.108C451.545 129.108 452.733 128.55 453.435 127.56V129H455.073V119.46H453.345ZM461.099 129.108C463.637 129.108 465.221 128.01 465.221 126.282C465.221 122.574 459.173 124.41 459.173 122.16C459.173 121.404 459.911 120.846 461.423 120.846C462.359 120.846 463.313 121.044 464.177 121.602L464.915 120.234C464.087 119.694 462.683 119.37 461.441 119.37C458.993 119.37 457.463 120.522 457.463 122.232C457.463 126.03 463.493 124.176 463.493 126.318C463.493 127.128 462.827 127.614 461.225 127.614C459.983 127.614 458.687 127.2 457.877 126.624L457.157 127.992C457.949 128.622 459.515 129.108 461.099 129.108ZM472.204 127.2C471.844 127.488 471.358 127.65 470.854 127.65C469.9 127.65 469.36 127.074 469.36 126.048V120.882H472.096V119.46H469.36V117.372H467.632V119.46H466.012V120.882H467.632V126.12C467.632 128.046 468.73 129.108 470.656 129.108C471.43 129.108 472.222 128.892 472.744 128.442L472.204 127.2ZM476.489 121.062V119.46H474.833V129H476.561V124.248C476.561 122.16 477.713 121.026 479.567 121.026C479.693 121.026 479.819 121.026 479.963 121.044V119.37C478.289 119.37 477.101 119.946 476.489 121.062ZM485.55 119.37C484.02 119.37 482.598 119.802 481.608 120.594L482.328 121.89C483.066 121.26 484.218 120.864 485.352 120.864C487.062 120.864 487.908 121.71 487.908 123.168V123.51H485.172C482.328 123.51 481.338 124.77 481.338 126.3C481.338 127.956 482.706 129.108 484.866 129.108C486.36 129.108 487.422 128.604 487.998 127.74V129H489.636V123.24C489.636 120.63 488.16 119.37 485.55 119.37ZM485.154 127.776C483.84 127.776 483.048 127.182 483.048 126.228C483.048 125.418 483.534 124.752 485.244 124.752H487.908V126.084C487.476 127.182 486.45 127.776 485.154 127.776ZM497.657 127.2C497.297 127.488 496.811 127.65 496.307 127.65C495.353 127.65 494.813 127.074 494.813 126.048V120.882H497.549V119.46H494.813V117.372H493.085V119.46H491.465V120.882H493.085V126.12C493.085 128.046 494.183 129.108 496.109 129.108C496.883 129.108 497.675 128.892 498.197 128.442L497.657 127.2ZM504.056 129.108C506.918 129.108 509.006 127.074 509.006 124.23C509.006 121.386 506.918 119.37 504.056 119.37C501.194 119.37 499.088 121.386 499.088 124.23C499.088 127.074 501.194 129.108 504.056 129.108ZM504.056 127.596C502.22 127.596 500.834 126.264 500.834 124.23C500.834 122.196 502.22 120.882 504.056 120.882C505.892 120.882 507.26 122.196 507.26 124.23C507.26 126.264 505.892 127.596 504.056 127.596ZM513.052 121.062V119.46H511.396V129H513.124V124.248C513.124 122.16 514.276 121.026 516.13 121.026C516.256 121.026 516.382 121.026 516.526 121.044V119.37C514.852 119.37 513.664 119.946 513.052 121.062Z" fill="black" fill-opacity="0.7"/>
<path d="M155.81 356.466C157.034 355.998 157.772 355.026 157.772 353.64C157.772 351.534 156.116 350.4 153.38 350.4H147.962V363H153.722C156.818 363 158.402 361.722 158.402 359.562C158.402 357.924 157.502 356.88 155.81 356.466ZM149.744 351.822H153.254C154.982 351.822 155.954 352.542 155.954 353.892C155.954 355.242 154.982 355.944 153.254 355.944H149.744V351.822ZM153.686 361.578H149.744V357.312H153.686C155.576 357.312 156.584 357.96 156.584 359.418C156.584 360.894 155.576 361.578 153.686 361.578ZM169.743 358.284C169.743 355.35 167.781 353.37 165.027 353.37C162.273 353.37 160.239 355.404 160.239 358.23C160.239 361.074 162.291 363.108 165.369 363.108C166.953 363.108 168.267 362.568 169.131 361.56L168.177 360.444C167.475 361.218 166.539 361.596 165.423 361.596C163.533 361.596 162.183 360.48 161.967 358.806H169.707C169.725 358.644 169.743 358.428 169.743 358.284ZM165.027 354.828C166.701 354.828 167.907 355.962 168.087 357.564H161.967C162.147 355.944 163.371 354.828 165.027 354.828ZM179.336 363H181.37L177.5 358.05L181.118 353.46H179.264L176.168 357.492H174.152V353.46H172.424V363H174.152V358.968H176.132L179.336 363ZM190.134 353.46H181.422V354.972H184.914V363H186.642V354.972H190.134V353.46ZM195.565 363.108C198.427 363.108 200.515 361.074 200.515 358.23C200.515 355.386 198.427 353.37 195.565 353.37C192.703 353.37 190.597 355.386 190.597 358.23C190.597 361.074 192.703 363.108 195.565 363.108ZM195.565 361.596C193.729 361.596 192.343 360.264 192.343 358.23C192.343 356.196 193.729 354.882 195.565 354.882C197.401 354.882 198.769 356.196 198.769 358.23C198.769 360.264 197.401 361.596 195.565 361.596ZM208.068 353.37C206.664 353.37 205.44 353.91 204.666 354.972V353.46H203.01V366.492H204.738V361.56C205.53 362.586 206.718 363.108 208.068 363.108C210.858 363.108 212.892 361.164 212.892 358.23C212.892 355.314 210.858 353.37 208.068 353.37ZM207.924 361.596C206.106 361.596 204.72 360.264 204.72 358.23C204.72 356.214 206.106 354.882 207.924 354.882C209.76 354.882 211.146 356.214 211.146 358.23C211.146 360.264 209.76 361.596 207.924 361.596ZM215.403 363H217.131V359.004H222.567V363H224.295V353.46H222.567V357.51H217.131V353.46H215.403V363ZM231.056 353.37C229.526 353.37 228.104 353.802 227.114 354.594L227.834 355.89C228.572 355.26 229.724 354.864 230.858 354.864C232.568 354.864 233.414 355.71 233.414 357.168V357.51H230.678C227.834 357.51 226.844 358.77 226.844 360.3C226.844 361.956 228.212 363.108 230.372 363.108C231.866 363.108 232.928 362.604 233.504 361.74V363H235.142V357.24C235.142 354.63 233.666 353.37 231.056 353.37ZM230.66 361.776C229.346 361.776 228.554 361.182 228.554 360.228C228.554 359.418 229.04 358.752 230.75 358.752H233.414V360.084C232.982 361.182 231.956 361.776 230.66 361.776ZM241.728 353.46C239.172 353.46 237.534 354.594 237.534 356.808C237.534 358.32 238.344 359.31 239.766 359.742L237.444 363H239.298L241.386 359.976H241.584H244.356V363H245.904V353.46H241.728ZM239.298 356.862C239.298 355.53 240.198 354.972 241.782 354.972H244.356V358.734H241.71C240.108 358.734 239.298 358.14 239.298 356.862ZM261.13 353.46H254.11V363H255.838V354.972H261.13V353.46ZM267.957 353.37C266.553 353.37 265.329 353.91 264.555 354.972V353.46H262.899V366.492H264.627V361.56C265.419 362.586 266.607 363.108 267.957 363.108C270.747 363.108 272.781 361.164 272.781 358.23C272.781 355.314 270.747 353.37 267.957 353.37ZM267.813 361.596C265.995 361.596 264.609 360.264 264.609 358.23C264.609 356.214 265.995 354.882 267.813 354.882C269.649 354.882 271.035 356.214 271.035 358.23C271.035 360.264 269.649 361.596 267.813 361.596ZM278.605 353.37C277.075 353.37 275.653 353.802 274.663 354.594L275.383 355.89C276.121 355.26 277.273 354.864 278.407 354.864C280.117 354.864 280.963 355.71 280.963 357.168V357.51H278.227C275.383 357.51 274.393 358.77 274.393 360.3C274.393 361.956 275.761 363.108 277.921 363.108C279.415 363.108 280.477 362.604 281.053 361.74V363H282.691V357.24C282.691 354.63 281.215 353.37 278.605 353.37ZM278.209 361.776C276.895 361.776 276.103 361.182 276.103 360.228C276.103 359.418 276.589 358.752 278.299 358.752H280.963V360.084C280.531 361.182 279.505 361.776 278.209 361.776ZM297.845 358.212C297.845 355.26 295.757 353.568 292.211 353.37V349.644H290.519V353.37C286.937 353.55 284.903 355.26 284.903 358.212C284.903 361.2 286.955 362.928 290.519 363.126V366.492H292.211V363.126C295.775 362.928 297.845 361.182 297.845 358.212ZM286.613 358.212C286.613 356.232 287.891 355.08 290.519 354.9V361.596C287.909 361.416 286.613 360.246 286.613 358.212ZM292.211 361.614V354.9C294.821 355.08 296.135 356.214 296.135 358.212C296.135 360.264 294.821 361.416 292.211 361.614ZM300.287 363H301.871L307.703 356.052V363H309.431V353.46H307.865L302.015 360.408V353.46H300.287V363ZM319.697 363H321.731L317.861 358.05L321.479 353.46H319.625L316.529 357.492H314.513V353.46H312.785V363H314.513V358.968H316.493L319.697 363ZM326.769 353.37C325.239 353.37 323.817 353.802 322.827 354.594L323.547 355.89C324.285 355.26 325.437 354.864 326.571 354.864C328.281 354.864 329.127 355.71 329.127 357.168V357.51H326.391C323.547 357.51 322.557 358.77 322.557 360.3C322.557 361.956 323.925 363.108 326.085 363.108C327.579 363.108 328.641 362.604 329.217 361.74V363H330.855V357.24C330.855 354.63 329.379 353.37 326.769 353.37ZM326.373 361.776C325.059 361.776 324.267 361.182 324.267 360.228C324.267 359.418 324.753 358.752 326.463 358.752H329.127V360.084C328.695 361.182 327.669 361.776 326.373 361.776Z" fill="black" fill-opacity="0.7"/>
<path d="M393.304 207H395.194L389.47 194.4H387.688L381.982 207H383.836L385.222 203.85H391.918L393.304 207ZM385.852 202.41L388.57 196.236L391.288 202.41H385.852ZM400.314 194.958C400.818 194.958 401.286 195.138 401.646 195.408L402.168 194.094C401.682 193.716 400.962 193.536 400.224 193.536C398.19 193.536 397.074 194.76 397.074 196.614V197.46H395.454V198.882H397.074V207H398.802V198.882H401.538V197.46H398.766V196.632C398.766 195.534 399.288 194.958 400.314 194.958ZM407.991 205.2C407.631 205.488 407.145 205.65 406.641 205.65C405.687 205.65 405.147 205.074 405.147 204.048V198.882H407.883V197.46H405.147V195.372H403.419V197.46H401.799V198.882H403.419V204.12C403.419 206.046 404.517 207.108 406.443 207.108C407.217 207.108 408.009 206.892 408.531 206.442L407.991 205.2ZM418.926 202.284C418.926 199.35 416.964 197.37 414.21 197.37C411.456 197.37 409.422 199.404 409.422 202.23C409.422 205.074 411.474 207.108 414.552 207.108C416.136 207.108 417.45 206.568 418.314 205.56L417.36 204.444C416.658 205.218 415.722 205.596 414.606 205.596C412.716 205.596 411.366 204.48 411.15 202.806H418.89C418.908 202.644 418.926 202.428 418.926 202.284ZM414.21 198.828C415.884 198.828 417.09 199.962 417.27 201.564H411.15C411.33 199.944 412.554 198.828 414.21 198.828ZM422.982 199.062V197.46H421.326V207H423.054V202.248C423.054 200.16 424.206 199.026 426.06 199.026C426.186 199.026 426.312 199.026 426.456 199.044V197.37C424.782 197.37 423.594 197.946 422.982 199.062ZM435.594 205.434V201.366H441.912V199.836H435.594V195.966H442.686V194.4H433.794V207H442.938V205.434H435.594ZM449.093 194.958C449.597 194.958 450.065 195.138 450.425 195.408L450.947 194.094C450.461 193.716 449.741 193.536 449.003 193.536C446.969 193.536 445.853 194.76 445.853 196.614V197.46H444.233V198.882H445.853V207H447.581V198.882H450.317V197.46H447.545V196.632C447.545 195.534 448.067 194.958 449.093 194.958ZM455.439 194.958C455.943 194.958 456.411 195.138 456.771 195.408L457.293 194.094C456.807 193.716 456.087 193.536 455.349 193.536C453.315 193.536 452.199 194.76 452.199 196.614V197.46H450.579V198.882H452.199V207H453.927V198.882H456.663V197.46H453.891V196.632C453.891 195.534 454.413 194.958 455.439 194.958ZM466.774 202.284C466.774 199.35 464.812 197.37 462.058 197.37C459.304 197.37 457.27 199.404 457.27 202.23C457.27 205.074 459.322 207.108 462.4 207.108C463.984 207.108 465.298 206.568 466.162 205.56L465.208 204.444C464.506 205.218 463.57 205.596 462.454 205.596C460.564 205.596 459.214 204.48 458.998 202.806H466.738C466.756 202.644 466.774 202.428 466.774 202.284ZM462.058 198.828C463.732 198.828 464.938 199.962 465.118 201.564H458.998C459.178 199.944 460.402 198.828 462.058 198.828ZM473.331 207.108C475.041 207.108 476.463 206.388 477.219 205.056L475.905 204.228C475.293 205.164 474.357 205.596 473.313 205.596C471.441 205.596 470.037 204.3 470.037 202.23C470.037 200.196 471.441 198.882 473.313 198.882C474.357 198.882 475.293 199.314 475.905 200.25L477.219 199.404C476.463 198.072 475.041 197.37 473.331 197.37C470.397 197.37 468.291 199.386 468.291 202.23C468.291 205.074 470.397 207.108 473.331 207.108ZM484.403 205.2C484.043 205.488 483.557 205.65 483.053 205.65C482.099 205.65 481.559 205.074 481.559 204.048V198.882H484.295V197.46H481.559V195.372H479.831V197.46H478.211V198.882H479.831V204.12C479.831 206.046 480.929 207.108 482.855 207.108C483.629 207.108 484.421 206.892 484.943 206.442L484.403 205.2ZM489.769 207.108C492.307 207.108 493.891 206.01 493.891 204.282C493.891 200.574 487.843 202.41 487.843 200.16C487.843 199.404 488.581 198.846 490.093 198.846C491.029 198.846 491.983 199.044 492.847 199.602L493.585 198.234C492.757 197.694 491.353 197.37 490.111 197.37C487.663 197.37 486.133 198.522 486.133 200.232C486.133 204.03 492.163 202.176 492.163 204.318C492.163 205.128 491.497 205.614 489.895 205.614C488.653 205.614 487.357 205.2 486.547 204.624L485.827 205.992C486.619 206.622 488.185 207.108 489.769 207.108Z" fill="black" fill-opacity="0.2"/>
<path d="M168.876 128.4H163.962V141H165.762V137.184H168.876C172.152 137.184 174.132 135.528 174.132 132.792C174.132 130.056 172.152 128.4 168.876 128.4ZM168.822 135.618H165.762V129.966H168.822C171.126 129.966 172.332 130.992 172.332 132.792C172.332 134.592 171.126 135.618 168.822 135.618ZM179.662 131.37C178.132 131.37 176.71 131.802 175.72 132.594L176.44 133.89C177.178 133.26 178.33 132.864 179.464 132.864C181.174 132.864 182.02 133.71 182.02 135.168V135.51H179.284C176.44 135.51 175.45 136.77 175.45 138.3C175.45 139.956 176.818 141.108 178.978 141.108C180.472 141.108 181.534 140.604 182.11 139.74V141H183.748V135.24C183.748 132.63 182.272 131.37 179.662 131.37ZM179.266 139.776C177.952 139.776 177.16 139.182 177.16 138.228C177.16 137.418 177.646 136.752 179.356 136.752H182.02V138.084C181.588 139.182 180.562 139.776 179.266 139.776ZM191.018 141.108C192.728 141.108 194.15 140.388 194.906 139.056L193.592 138.228C192.98 139.164 192.044 139.596 191 139.596C189.128 139.596 187.724 138.3 187.724 136.23C187.724 134.196 189.128 132.882 191 132.882C192.044 132.882 192.98 133.314 193.592 134.25L194.906 133.404C194.15 132.072 192.728 131.37 191.018 131.37C188.084 131.37 185.978 133.386 185.978 136.23C185.978 139.074 188.084 141.108 191.018 141.108ZM204.13 131.46H195.418V132.972H198.91V141H200.638V132.972H204.13V131.46ZM210.955 131.37C209.551 131.37 208.327 131.91 207.553 132.972V131.46H205.897V144.492H207.625V139.56C208.417 140.586 209.605 141.108 210.955 141.108C213.745 141.108 215.779 139.164 215.779 136.23C215.779 133.314 213.745 131.37 210.955 131.37ZM210.811 139.596C208.993 139.596 207.607 138.264 207.607 136.23C207.607 134.214 208.993 132.882 210.811 132.882C212.647 132.882 214.033 134.214 214.033 136.23C214.033 138.264 212.647 139.596 210.811 139.596ZM222.375 141.108C225.237 141.108 227.325 139.074 227.325 136.23C227.325 133.386 225.237 131.37 222.375 131.37C219.513 131.37 217.407 133.386 217.407 136.23C217.407 139.074 219.513 141.108 222.375 141.108ZM222.375 139.596C220.539 139.596 219.153 138.264 219.153 136.23C219.153 134.196 220.539 132.882 222.375 132.882C224.211 132.882 225.579 134.196 225.579 136.23C225.579 138.264 224.211 139.596 222.375 139.596ZM236.318 136.05C237.272 135.672 237.848 134.934 237.848 133.908C237.848 132.342 236.498 131.46 234.248 131.46H229.82V141H234.41C236.948 141 238.172 140.028 238.172 138.372C238.172 137.166 237.578 136.374 236.318 136.05ZM231.512 132.792H234.104C235.418 132.792 236.12 133.242 236.12 134.16C236.12 135.078 235.418 135.564 234.104 135.564H231.512V132.792ZM234.284 139.668H231.512V136.806H234.392C235.814 136.806 236.444 137.274 236.444 138.264C236.444 139.236 235.706 139.668 234.284 139.668ZM244.279 131.37C242.749 131.37 241.327 131.802 240.337 132.594L241.057 133.89C241.795 133.26 242.947 132.864 244.081 132.864C245.791 132.864 246.637 133.71 246.637 135.168V135.51H243.901C241.057 135.51 240.067 136.77 240.067 138.3C240.067 139.956 241.435 141.108 243.595 141.108C245.089 141.108 246.151 140.604 246.727 139.74V141H248.365V135.24C248.365 132.63 246.889 131.37 244.279 131.37ZM243.883 139.776C242.569 139.776 241.777 139.182 241.777 138.228C241.777 137.418 242.263 136.752 243.973 136.752H246.637V138.084C246.205 139.182 245.179 139.776 243.883 139.776ZM254.951 131.46C252.395 131.46 250.757 132.594 250.757 134.808C250.757 136.32 251.567 137.31 252.989 137.742L250.667 141H252.521L254.609 137.976H254.807H257.579V141H259.127V131.46H254.951ZM252.521 134.862C252.521 133.53 253.421 132.972 255.005 132.972H257.579V136.734H254.933C253.331 136.734 252.521 136.14 252.521 134.862ZM274.352 131.46H267.332V141H269.06V132.972H274.352V131.46ZM281.179 131.37C279.775 131.37 278.551 131.91 277.777 132.972V131.46H276.121V144.492H277.849V139.56C278.641 140.586 279.829 141.108 281.179 141.108C283.969 141.108 286.003 139.164 286.003 136.23C286.003 133.314 283.969 131.37 281.179 131.37ZM281.035 139.596C279.217 139.596 277.831 138.264 277.831 136.23C277.831 134.214 279.217 132.882 281.035 132.882C282.871 132.882 284.257 134.214 284.257 136.23C284.257 138.264 282.871 139.596 281.035 139.596ZM291.828 131.37C290.298 131.37 288.876 131.802 287.886 132.594L288.606 133.89C289.344 133.26 290.496 132.864 291.63 132.864C293.34 132.864 294.186 133.71 294.186 135.168V135.51H291.45C288.606 135.51 287.616 136.77 287.616 138.3C287.616 139.956 288.984 141.108 291.144 141.108C292.638 141.108 293.7 140.604 294.276 139.74V141H295.914V135.24C295.914 132.63 294.438 131.37 291.828 131.37ZM291.432 139.776C290.118 139.776 289.326 139.182 289.326 138.228C289.326 137.418 289.812 136.752 291.522 136.752H294.186V138.084C293.754 139.182 292.728 139.776 291.432 139.776ZM311.068 136.212C311.068 133.26 308.98 131.568 305.434 131.37V127.644H303.742V131.37C300.16 131.55 298.126 133.26 298.126 136.212C298.126 139.2 300.178 140.928 303.742 141.126V144.492H305.434V141.126C308.998 140.928 311.068 139.182 311.068 136.212ZM299.836 136.212C299.836 134.232 301.114 133.08 303.742 132.9V139.596C301.132 139.416 299.836 138.246 299.836 136.212ZM305.434 139.614V132.9C308.044 133.08 309.358 134.214 309.358 136.212C309.358 138.264 308.044 139.416 305.434 139.614ZM313.51 141H315.094L320.926 134.052V141H322.654V131.46H321.088L315.238 138.408V131.46H313.51V141ZM332.92 141H334.954L331.084 136.05L334.702 131.46H332.848L329.752 135.492H327.736V131.46H326.008V141H327.736V136.968H329.716L332.92 141ZM339.992 131.37C338.462 131.37 337.04 131.802 336.05 132.594L336.77 133.89C337.508 133.26 338.66 132.864 339.794 132.864C341.504 132.864 342.35 133.71 342.35 135.168V135.51H339.614C336.77 135.51 335.78 136.77 335.78 138.3C335.78 139.956 337.148 141.108 339.308 141.108C340.802 141.108 341.864 140.604 342.44 139.74V141H344.078V135.24C344.078 132.63 342.602 131.37 339.992 131.37ZM339.596 139.776C338.282 139.776 337.49 139.182 337.49 138.228C337.49 137.418 337.976 136.752 339.686 136.752H342.35V138.084C341.918 139.182 340.892 139.776 339.596 139.776Z" fill="black" fill-opacity="0.2"/>
<path d="M203.926 78.4V83.818H196.69V78.4H194.89V91H196.69V85.384H203.926V91H205.726V78.4H203.926ZM211.999 91H213.781V79.966H218.101V78.4H207.679V79.966H211.999V91ZM233.472 91L233.454 78.4H231.978L226.794 87.256L221.538 78.4H220.062V91H221.79V81.874L226.344 89.47H227.172L231.726 81.82L231.744 91H233.472ZM237.253 91H245.875V89.434H239.053V78.4H237.253V91Z" fill="black"/>
<path d="M236.524 210.144C238.486 210.144 240.178 209.46 241.33 208.164L240.16 207.03C239.188 208.056 238 208.542 236.614 208.542C233.77 208.542 231.664 206.49 231.664 203.7C231.664 200.91 233.77 198.858 236.614 198.858C238 198.858 239.188 199.326 240.16 200.352L241.33 199.218C240.178 197.922 238.486 197.256 236.542 197.256C232.708 197.256 229.864 199.974 229.864 203.7C229.864 207.426 232.708 210.144 236.524 210.144ZM247.517 210.144C250.847 210.144 252.395 208.488 252.395 206.562C252.395 201.936 244.763 203.862 244.763 200.784C244.763 199.686 245.681 198.786 247.823 198.786C248.939 198.786 250.181 199.11 251.279 199.812L251.873 198.372C250.829 197.652 249.299 197.256 247.823 197.256C244.511 197.256 242.999 198.912 242.999 200.856C242.999 205.536 250.631 203.592 250.631 206.67C250.631 207.768 249.695 208.614 247.517 208.614C245.897 208.614 244.295 208.002 243.359 207.156L242.693 208.56C243.701 209.496 245.591 210.144 247.517 210.144ZM258.697 210.144C262.027 210.144 263.575 208.488 263.575 206.562C263.575 201.936 255.943 203.862 255.943 200.784C255.943 199.686 256.861 198.786 259.003 198.786C260.119 198.786 261.361 199.11 262.459 199.812L263.053 198.372C262.009 197.652 260.479 197.256 259.003 197.256C255.691 197.256 254.179 198.912 254.179 200.856C254.179 205.536 261.811 203.592 261.811 206.67C261.811 207.768 260.875 208.614 258.697 208.614C257.077 208.614 255.475 208.002 254.539 207.156L253.873 208.56C254.881 209.496 256.771 210.144 258.697 210.144Z" fill="black"/>
<path d="M53.51 247.144C56.084 247.144 57.452 245.758 57.452 242.95V234.4H51.116V235.966H55.67V243.04C55.67 244.732 54.932 245.596 53.51 245.596C52.448 245.596 51.566 245.074 50.882 244.102L49.838 245.326C50.648 246.496 52.016 247.144 53.51 247.144ZM64.3405 237.37C62.8105 237.37 61.3885 237.802 60.3985 238.594L61.1185 239.89C61.8565 239.26 63.0085 238.864 64.1425 238.864C65.8525 238.864 66.6985 239.71 66.6985 241.168V241.51H63.9625C61.1185 241.51 60.1285 242.77 60.1285 244.3C60.1285 245.956 61.4965 247.108 63.6565 247.108C65.1505 247.108 66.2125 246.604 66.7885 245.74V247H68.4265V241.24C68.4265 238.63 66.9505 237.37 64.3405 237.37ZM63.9445 245.776C62.6305 245.776 61.8385 245.182 61.8385 244.228C61.8385 243.418 62.3245 242.752 64.0345 242.752H66.6985V244.084C66.2665 245.182 65.2405 245.776 63.9445 245.776ZM78.1985 237.46L74.8505 245.11L71.5745 237.46H69.7745L73.9505 247H75.7145L79.8905 237.46H78.1985ZM84.6784 237.37C83.1484 237.37 81.7264 237.802 80.7364 238.594L81.4564 239.89C82.1944 239.26 83.3464 238.864 84.4804 238.864C86.1904 238.864 87.0364 239.71 87.0364 241.168V241.51H84.3004C81.4564 241.51 80.4664 242.77 80.4664 244.3C80.4664 245.956 81.8344 247.108 83.9944 247.108C85.4884 247.108 86.5504 246.604 87.1264 245.74V247H88.7644V241.24C88.7644 238.63 87.2884 237.37 84.6784 237.37ZM84.2824 245.776C82.9684 245.776 82.1764 245.182 82.1764 244.228C82.1764 243.418 82.6624 242.752 84.3724 242.752H87.0364V244.084C86.6044 245.182 85.5784 245.776 84.2824 245.776ZM95.8862 247.144C99.2162 247.144 100.764 245.488 100.764 243.562C100.764 238.936 93.1322 240.862 93.1322 237.784C93.1322 236.686 94.0502 235.786 96.1922 235.786C97.3082 235.786 98.5502 236.11 99.6482 236.812L100.242 235.372C99.1982 234.652 97.6682 234.256 96.1922 234.256C92.8802 234.256 91.3682 235.912 91.3682 237.856C91.3682 242.536 99.0002 240.592 99.0002 243.67C99.0002 244.768 98.0642 245.614 95.8862 245.614C94.2662 245.614 92.6642 245.002 91.7282 244.156L91.0622 245.56C92.0702 246.496 93.9602 247.144 95.8862 247.144ZM107.3 247.108C109.01 247.108 110.432 246.388 111.188 245.056L109.874 244.228C109.262 245.164 108.326 245.596 107.282 245.596C105.41 245.596 104.006 244.3 104.006 242.23C104.006 240.196 105.41 238.882 107.282 238.882C108.326 238.882 109.262 239.314 109.874 240.25L111.188 239.404C110.432 238.072 109.01 237.37 107.3 237.37C104.366 237.37 102.26 239.386 102.26 242.23C102.26 245.074 104.366 247.108 107.3 247.108ZM115.081 239.062V237.46H113.425V247H115.153V242.248C115.153 240.16 116.305 239.026 118.159 239.026C118.285 239.026 118.411 239.026 118.555 239.044V237.37C116.881 237.37 115.693 237.946 115.081 239.062ZM121.549 235.624C122.233 235.624 122.719 235.12 122.719 234.472C122.719 233.86 122.215 233.374 121.549 233.374C120.883 233.374 120.379 233.878 120.379 234.508C120.379 235.138 120.883 235.624 121.549 235.624ZM120.685 247H122.413V237.46H120.685V247ZM130.77 237.37C129.366 237.37 128.142 237.91 127.368 238.972V237.46H125.712V250.492H127.44V245.56C128.232 246.586 129.42 247.108 130.77 247.108C133.56 247.108 135.594 245.164 135.594 242.23C135.594 239.314 133.56 237.37 130.77 237.37ZM130.626 245.596C128.808 245.596 127.422 244.264 127.422 242.23C127.422 240.214 128.808 238.882 130.626 238.882C132.462 238.882 133.848 240.214 133.848 242.23C133.848 244.264 132.462 245.596 130.626 245.596ZM142.806 245.2C142.446 245.488 141.96 245.65 141.456 245.65C140.502 245.65 139.962 245.074 139.962 244.048V238.882H142.698V237.46H139.962V235.372H138.234V237.46H136.614V238.882H138.234V244.12C138.234 246.046 139.332 247.108 141.258 247.108C142.032 247.108 142.824 246.892 143.346 246.442L142.806 245.2Z" fill="black"/>
<path d="M59.62 43.4H49.234V44.966H53.536V56H55.3V44.966H59.62V43.4ZM61.2912 56H62.8752L68.7072 49.052V56H70.4352V46.46H68.8692L63.0192 53.408V46.46H61.2912V56ZM73.7892 46.46V56H75.5172V47.972H80.8992V56H82.6272V46.46H73.7892ZM90.0569 56.108C92.9189 56.108 95.0069 54.074 95.0069 51.23C95.0069 48.386 92.9189 46.37 90.0569 46.37C87.1949 46.37 85.0889 48.386 85.0889 51.23C85.0889 54.074 87.1949 56.108 90.0569 56.108ZM90.0569 54.596C88.2209 54.596 86.8349 53.264 86.8349 51.23C86.8349 49.196 88.2209 47.882 90.0569 47.882C91.8929 47.882 93.2609 49.196 93.2609 51.23C93.2609 53.264 91.8929 54.596 90.0569 54.596ZM104.522 46.46H97.5021V56H99.2301V47.972H104.522V46.46ZM111.349 46.37C109.945 46.37 108.721 46.91 107.947 47.972V46.46H106.291V59.492H108.019V54.56C108.811 55.586 109.999 56.108 111.349 56.108C114.139 56.108 116.173 54.164 116.173 51.23C116.173 48.314 114.139 46.37 111.349 46.37ZM111.205 54.596C109.387 54.596 108.001 53.264 108.001 51.23C108.001 49.214 109.387 47.882 111.205 47.882C113.041 47.882 114.427 49.214 114.427 51.23C114.427 53.264 113.041 54.596 111.205 54.596ZM121.998 46.37C120.468 46.37 119.046 46.802 118.056 47.594L118.776 48.89C119.514 48.26 120.666 47.864 121.8 47.864C123.51 47.864 124.356 48.71 124.356 50.168V50.51H121.62C118.776 50.51 117.786 51.77 117.786 53.3C117.786 54.956 119.154 56.108 121.314 56.108C122.808 56.108 123.87 55.604 124.446 54.74V56H126.084V50.24C126.084 47.63 124.608 46.37 121.998 46.37ZM121.602 54.776C120.288 54.776 119.496 54.182 119.496 53.228C119.496 52.418 119.982 51.752 121.692 51.752H124.356V53.084C123.924 54.182 122.898 54.776 121.602 54.776ZM141.237 51.212C141.237 48.26 139.149 46.568 135.603 46.37V42.644H133.911V46.37C130.329 46.55 128.295 48.26 128.295 51.212C128.295 54.2 130.347 55.928 133.911 56.126V59.492H135.603V56.126C139.167 55.928 141.237 54.182 141.237 51.212ZM130.005 51.212C130.005 49.232 131.283 48.08 133.911 47.9V54.596C131.301 54.416 130.005 53.246 130.005 51.212ZM135.603 54.614V47.9C138.213 48.08 139.527 49.214 139.527 51.212C139.527 53.264 138.213 54.416 135.603 54.614ZM143.68 56H145.264L151.096 49.052V56H152.824V46.46H151.258L145.408 53.408V46.46H143.68V56ZM163.09 56H165.124L161.254 51.05L164.872 46.46H163.018L159.922 50.492H157.906V46.46H156.178V56H157.906V51.968H159.886L163.09 56ZM170.162 46.37C168.632 46.37 167.21 46.802 166.22 47.594L166.94 48.89C167.678 48.26 168.83 47.864 169.964 47.864C171.674 47.864 172.52 48.71 172.52 50.168V50.51H169.784C166.94 50.51 165.95 51.77 165.95 53.3C165.95 54.956 167.318 56.108 169.478 56.108C170.972 56.108 172.034 55.604 172.61 54.74V56H174.248V50.24C174.248 47.63 172.772 46.37 170.162 46.37ZM169.766 54.776C168.452 54.776 167.66 54.182 167.66 53.228C167.66 52.418 168.146 51.752 169.856 51.752H172.52V53.084C172.088 54.182 171.062 54.776 169.766 54.776Z" fill="black" fill-opacity="0.2"/>
<path d="M328.11 193.144C331.44 193.144 333.438 191.218 333.438 187.564V180.4H331.692V187.492C331.692 190.282 330.396 191.542 328.128 191.542C325.86 191.542 324.582 190.282 324.582 187.492V180.4H322.782V187.564C322.782 191.218 324.798 193.144 328.11 193.144ZM337.128 193H338.928V180.4H337.128V193Z" fill="black" fill-opacity="0.5"/>
<path d="M352.538 70H354.428L348.704 57.4H346.922L341.216 70H343.07L344.456 66.85H351.152L352.538 70ZM345.086 65.41L347.804 59.236L350.522 65.41H345.086ZM364.611 68.488V60.46H357.213L357.069 63.682C356.943 66.094 356.709 68.416 355.341 68.488H354.837V72.214H356.475V70H364.449V72.214H366.069V68.488H364.611ZM358.653 63.808L358.743 61.972H362.883V68.488H357.537C358.401 67.732 358.581 65.788 358.653 63.808ZM371.722 60.37C370.192 60.37 368.77 60.802 367.78 61.594L368.5 62.89C369.238 62.26 370.39 61.864 371.524 61.864C373.234 61.864 374.08 62.71 374.08 64.168V64.51H371.344C368.5 64.51 367.51 65.77 367.51 67.3C367.51 68.956 368.878 70.108 371.038 70.108C372.532 70.108 373.594 69.604 374.17 68.74V70H375.808V64.24C375.808 61.63 374.332 60.37 371.722 60.37ZM371.326 68.776C370.012 68.776 369.22 68.182 369.22 67.228C369.22 66.418 369.706 65.752 371.416 65.752H374.08V67.084C373.648 68.182 372.622 68.776 371.326 68.776ZM378.92 60.46V70H380.648V61.972H386.03V70H387.758V60.46H378.92ZM398.212 60.46H389.5V61.972H392.992V70H394.72V61.972H398.212V60.46ZM399.979 70H401.563L407.395 63.052V70H409.123V60.46H407.557L401.707 67.408V60.46H399.979V70ZM418.975 65.05C419.929 64.672 420.505 63.934 420.505 62.908C420.505 61.342 419.155 60.46 416.905 60.46H412.477V70H417.067C419.605 70 420.829 69.028 420.829 67.372C420.829 66.166 420.235 65.374 418.975 65.05ZM414.169 61.792H416.761C418.075 61.792 418.777 62.242 418.777 63.16C418.777 64.078 418.075 64.564 416.761 64.564H414.169V61.792ZM416.941 68.668H414.169V65.806H417.049C418.471 65.806 419.101 66.274 419.101 67.264C419.101 68.236 418.363 68.668 416.941 68.668Z" fill="black" fill-opacity="0.3"/>
<path d="M257.224 260.4H248.962V273H250.744L250.726 261.966H257.206L257.224 260.4ZM262.328 263.37C260.924 263.37 259.7 263.91 258.926 264.972V263.46H257.27V276.492H258.998V271.56C259.79 272.586 260.978 273.108 262.328 273.108C265.118 273.108 267.152 271.164 267.152 268.23C267.152 265.314 265.118 263.37 262.328 263.37ZM262.184 271.596C260.366 271.596 258.98 270.264 258.98 268.23C258.98 266.214 260.366 264.882 262.184 264.882C264.02 264.882 265.406 266.214 265.406 268.23C265.406 270.264 264.02 271.596 262.184 271.596ZM272.976 263.37C271.446 263.37 270.024 263.802 269.034 264.594L269.754 265.89C270.492 265.26 271.644 264.864 272.778 264.864C274.488 264.864 275.334 265.71 275.334 267.168V267.51H272.598C269.754 267.51 268.764 268.77 268.764 270.3C268.764 271.956 270.132 273.108 272.292 273.108C273.786 273.108 274.848 272.604 275.424 271.74V273H277.062V267.24C277.062 264.63 275.586 263.37 272.976 263.37ZM272.58 271.776C271.266 271.776 270.474 271.182 270.474 270.228C270.474 269.418 270.96 268.752 272.67 268.752H275.334V270.084C274.902 271.182 273.876 271.776 272.58 271.776ZM292.216 268.212C292.216 265.26 290.128 263.568 286.582 263.37V259.644H284.89V263.37C281.308 263.55 279.274 265.26 279.274 268.212C279.274 271.2 281.326 272.928 284.89 273.126V276.492H286.582V273.126C290.146 272.928 292.216 271.182 292.216 268.212ZM280.984 268.212C280.984 266.232 282.262 265.08 284.89 264.9V271.596C282.28 271.416 280.984 270.246 280.984 268.212ZM286.582 271.614V264.9C289.192 265.08 290.506 266.214 290.506 268.212C290.506 270.264 289.192 271.416 286.582 271.614ZM294.658 273H296.242L302.074 266.052V273H303.802V263.46H302.236L296.386 270.408V263.46H294.658V273ZM313.042 263.46V267.816C312.124 268.212 311.188 268.446 310.324 268.446C308.866 268.446 307.966 267.798 307.966 266.448V263.46H306.238V266.556C306.238 268.824 307.642 269.868 309.964 269.868C311.026 269.868 312.07 269.598 313.042 269.148V273H314.77V263.46H313.042ZM326.747 268.284C326.747 265.35 324.785 263.37 322.031 263.37C319.277 263.37 317.243 265.404 317.243 268.23C317.243 271.074 319.295 273.108 322.373 273.108C323.957 273.108 325.271 272.568 326.135 271.56L325.181 270.444C324.479 271.218 323.543 271.596 322.427 271.596C320.537 271.596 319.187 270.48 318.971 268.806H326.711C326.729 268.644 326.747 268.428 326.747 268.284ZM322.031 264.828C323.705 264.828 324.911 265.962 325.091 267.564H318.971C319.151 265.944 320.375 264.828 322.031 264.828ZM333.586 273.108C335.296 273.108 336.718 272.388 337.474 271.056L336.16 270.228C335.548 271.164 334.612 271.596 333.568 271.596C331.696 271.596 330.292 270.3 330.292 268.23C330.292 266.196 331.696 264.882 333.568 264.882C334.612 264.882 335.548 265.314 336.16 266.25L337.474 265.404C336.718 264.072 335.296 263.37 333.586 263.37C330.652 263.37 328.546 265.386 328.546 268.23C328.546 271.074 330.652 273.108 333.586 273.108ZM346.623 273H348.657L344.787 268.05L348.405 263.46H346.551L343.455 267.492H341.439V263.46H339.711V273H341.439V268.968H343.419L346.623 273ZM350.469 273H352.053L357.885 266.052V273H359.613V263.46H358.047L352.197 270.408V263.46H350.469V273ZM367.431 262.218C369.177 262.218 370.239 261.354 370.275 259.734H369.069C369.051 260.634 368.403 261.21 367.413 261.21C366.441 261.21 365.793 260.634 365.775 259.734H364.605C364.623 261.354 365.685 262.218 367.431 262.218ZM362.967 273H364.551L370.383 266.052V273H372.111V263.46H370.545L364.695 270.408V263.46H362.967V273ZM388.543 271.488V263.46H381.145L381.001 266.682C380.875 269.094 380.641 271.416 379.273 271.488H378.769V275.214H380.407V273H388.381V275.214H390.001V271.488H388.543ZM382.585 266.808L382.675 264.972H386.815V271.488H381.469C382.333 270.732 382.513 268.788 382.585 266.808ZM392.252 273H393.836L399.668 266.052V273H401.396V263.46H399.83L393.98 270.408V263.46H392.252V273ZM409.758 268.032C410.802 267.654 411.486 266.88 411.486 265.926C411.486 264.378 409.776 263.334 407.454 263.334C406.23 263.334 405.042 263.586 403.8 264.216L404.268 265.548C405.312 265.062 406.302 264.81 407.274 264.81C408.732 264.81 409.704 265.314 409.704 266.178C409.704 266.988 408.894 267.456 407.616 267.456H405.996V268.698H407.742C409.146 268.698 409.974 269.202 409.974 270.084C409.974 271.056 408.912 271.65 407.292 271.65C406.122 271.65 404.862 271.326 403.944 270.732L403.422 272.046C404.484 272.73 405.888 273.126 407.31 273.126C409.848 273.126 411.756 271.956 411.756 270.228C411.756 269.13 411.036 268.356 409.758 268.032ZM417.785 263.37C416.255 263.37 414.833 263.802 413.843 264.594L414.563 265.89C415.301 265.26 416.453 264.864 417.587 264.864C419.297 264.864 420.143 265.71 420.143 267.168V267.51H417.407C414.563 267.51 413.573 268.77 413.573 270.3C413.573 271.956 414.941 273.108 417.101 273.108C418.595 273.108 419.657 272.604 420.233 271.74V273H421.871V267.24C421.871 264.63 420.395 263.37 417.785 263.37ZM417.389 271.776C416.075 271.776 415.283 271.182 415.283 270.228C415.283 269.418 415.769 268.752 417.479 268.752H420.143V270.084C419.711 271.182 418.685 271.776 417.389 271.776ZM429.447 262.218C431.193 262.218 432.255 261.354 432.291 259.734H431.085C431.067 260.634 430.419 261.21 429.429 261.21C428.457 261.21 427.809 260.634 427.791 259.734H426.621C426.639 261.354 427.701 262.218 429.447 262.218ZM424.983 273H426.567L432.399 266.052V273H434.127V263.46H432.561L426.711 270.408V263.46H424.983V273ZM437.481 273H439.209V269.004H444.645V273H446.373V263.46H444.645V267.51H439.209V263.46H437.481V273Z" fill="black" fill-opacity="0.5"/>
<path d="M93.44 311H95.492L90.776 304.502L95.276 298.4H93.35L89.39 303.872H86.726V298.4H84.962V311H86.726V305.456H89.354L93.44 311ZM101.012 311.108C103.874 311.108 105.962 309.074 105.962 306.23C105.962 303.386 103.874 301.37 101.012 301.37C98.15 301.37 96.044 303.386 96.044 306.23C96.044 309.074 98.15 311.108 101.012 311.108ZM101.012 309.596C99.176 309.596 97.79 308.264 97.79 306.23C97.79 304.196 99.176 302.882 101.012 302.882C102.848 302.882 104.216 304.196 104.216 306.23C104.216 308.264 102.848 309.596 101.012 309.596ZM109.251 301.46L109.089 304.988C108.963 307.238 108.891 309.578 107.343 309.578C107.217 309.578 107.073 309.56 106.911 309.524L106.803 310.982C107.199 311.09 107.541 311.144 107.865 311.144C110.025 311.144 110.475 308.462 110.637 305.096L110.745 302.972H114.849V311H116.577V301.46H109.251ZM124.004 311.108C126.866 311.108 128.954 309.074 128.954 306.23C128.954 303.386 126.866 301.37 124.004 301.37C121.142 301.37 119.036 303.386 119.036 306.23C119.036 309.074 121.142 311.108 124.004 311.108ZM124.004 309.596C122.168 309.596 120.782 308.264 120.782 306.23C120.782 304.196 122.168 302.882 124.004 302.882C125.84 302.882 127.208 304.196 127.208 306.23C127.208 308.264 125.84 309.596 124.004 309.596ZM136.507 301.37C135.103 301.37 133.879 301.91 133.105 302.972V301.46H131.449V314.492H133.177V309.56C133.969 310.586 135.157 311.108 136.507 311.108C139.297 311.108 141.331 309.164 141.331 306.23C141.331 303.314 139.297 301.37 136.507 301.37ZM136.363 309.596C134.545 309.596 133.159 308.264 133.159 306.23C133.159 304.214 134.545 302.882 136.363 302.882C138.199 302.882 139.585 304.214 139.585 306.23C139.585 308.264 138.199 309.596 136.363 309.596ZM143.842 311H145.426L151.258 304.052V311H152.986V301.46H151.42L145.57 308.408V301.46H143.842V311ZM160.498 311.108C162.208 311.108 163.63 310.388 164.386 309.056L163.072 308.228C162.46 309.164 161.524 309.596 160.48 309.596C158.608 309.596 157.204 308.3 157.204 306.23C157.204 304.196 158.608 302.882 160.48 302.882C161.524 302.882 162.46 303.314 163.072 304.25L164.386 303.404C163.63 302.072 162.208 301.37 160.498 301.37C157.564 301.37 155.458 303.386 155.458 306.23C155.458 309.074 157.564 311.108 160.498 311.108ZM173.61 301.46H164.898V302.972H168.39V311H170.118V302.972H173.61V301.46ZM175.377 311H176.961L182.793 304.052V311H184.521V301.46H182.955L177.105 308.408V301.46H175.377V311ZM194.787 311H196.821L192.951 306.05L196.569 301.46H194.715L191.619 305.492H189.603V301.46H187.875V311H189.603V306.968H191.583L194.787 311ZM201.859 301.37C200.329 301.37 198.907 301.802 197.917 302.594L198.637 303.89C199.375 303.26 200.527 302.864 201.661 302.864C203.371 302.864 204.217 303.71 204.217 305.168V305.51H201.481C198.637 305.51 197.647 306.77 197.647 308.3C197.647 309.956 199.015 311.108 201.175 311.108C202.669 311.108 203.731 310.604 204.307 309.74V311H205.945V305.24C205.945 302.63 204.469 301.37 201.859 301.37ZM201.463 309.776C200.149 309.776 199.357 309.182 199.357 308.228C199.357 307.418 199.843 306.752 201.553 306.752H204.217V308.084C203.785 309.182 202.759 309.776 201.463 309.776Z" fill="black" fill-opacity="0.2"/>
<path d="M6.876 170.4H1.962V183H3.762V179.184H6.876C10.152 179.184 12.132 177.528 12.132 174.792C12.132 172.056 10.152 170.4 6.876 170.4ZM6.822 177.618H3.762V171.966H6.822C9.126 171.966 10.332 172.992 10.332 174.792C10.332 176.592 9.126 177.618 6.822 177.618ZM14.1896 183H15.7736L21.6056 176.052V183H23.3336V173.46H21.7676L15.9176 180.408V173.46H14.1896V183ZM30.8457 183.108C32.5557 183.108 33.9777 182.388 34.7337 181.056L33.4197 180.228C32.8077 181.164 31.8717 181.596 30.8277 181.596C28.9557 181.596 27.5517 180.3 27.5517 178.23C27.5517 176.196 28.9557 174.882 30.8277 174.882C31.8717 174.882 32.8077 175.314 33.4197 176.25L34.7337 175.404C33.9777 174.072 32.5557 173.37 30.8457 173.37C27.9117 173.37 25.8057 175.386 25.8057 178.23C25.8057 181.074 27.9117 183.108 30.8457 183.108ZM40.9163 183.108C43.7783 183.108 45.8663 181.074 45.8663 178.23C45.8663 175.386 43.7783 173.37 40.9163 173.37C38.0543 173.37 35.9483 175.386 35.9483 178.23C35.9483 181.074 38.0543 183.108 40.9163 183.108ZM40.9163 181.596C39.0803 181.596 37.6943 180.264 37.6943 178.23C37.6943 176.196 39.0803 174.882 40.9163 174.882C42.7523 174.882 44.1203 176.196 44.1203 178.23C44.1203 180.264 42.7523 181.596 40.9163 181.596ZM54.8595 178.05C55.8135 177.672 56.3895 176.934 56.3895 175.908C56.3895 174.342 55.0395 173.46 52.7895 173.46H48.3615V183H52.9515C55.4895 183 56.7135 182.028 56.7135 180.372C56.7135 179.166 56.1195 178.374 54.8595 178.05ZM50.0535 174.792H52.6455C53.9595 174.792 54.6615 175.242 54.6615 176.16C54.6615 177.078 53.9595 177.564 52.6455 177.564H50.0535V174.792ZM52.8255 181.668H50.0535V178.806H52.9335C54.3555 178.806 54.9855 179.274 54.9855 180.264C54.9855 181.236 54.2475 181.668 52.8255 181.668ZM62.8201 173.37C61.2901 173.37 59.8681 173.802 58.8781 174.594L59.5981 175.89C60.3361 175.26 61.4881 174.864 62.6221 174.864C64.3321 174.864 65.1781 175.71 65.1781 177.168V177.51H62.4421C59.5981 177.51 58.6081 178.77 58.6081 180.3C58.6081 181.956 59.9761 183.108 62.1361 183.108C63.6301 183.108 64.6921 182.604 65.2681 181.74V183H66.9061V177.24C66.9061 174.63 65.4301 173.37 62.8201 173.37ZM62.4241 181.776C61.1101 181.776 60.3181 181.182 60.3181 180.228C60.3181 179.418 60.8041 178.752 62.5141 178.752H65.1781V180.084C64.7461 181.182 63.7201 181.776 62.4241 181.776ZM70.0178 183H71.7458V179.004H77.1818V183H78.9098V173.46H77.1818V177.51H71.7458V173.46H70.0178V183ZM82.2697 183H83.8537L89.6857 176.052V183H91.4137V173.46H89.8477L83.9977 180.408V173.46H82.2697V183ZM103.39 178.284C103.39 175.35 101.428 173.37 98.6738 173.37C95.9198 173.37 93.8858 175.404 93.8858 178.23C93.8858 181.074 95.9378 183.108 99.0158 183.108C100.6 183.108 101.914 182.568 102.778 181.56L101.824 180.444C101.122 181.218 100.186 181.596 99.0698 181.596C97.1798 181.596 95.8298 180.48 95.6138 178.806H103.354C103.372 178.644 103.39 178.428 103.39 178.284ZM98.6738 174.828C100.348 174.828 101.554 175.962 101.734 177.564H95.6138C95.7938 175.944 97.0178 174.828 98.6738 174.828ZM114.99 183.108C117.852 183.108 119.94 181.074 119.94 178.23C119.94 175.386 117.852 173.37 114.99 173.37C112.128 173.37 110.022 175.386 110.022 178.23C110.022 181.074 112.128 183.108 114.99 183.108ZM114.99 181.596C113.154 181.596 111.768 180.264 111.768 178.23C111.768 176.196 113.154 174.882 114.99 174.882C116.826 174.882 118.194 176.196 118.194 178.23C118.194 180.264 116.826 181.596 114.99 181.596ZM129.194 173.46H120.482V174.972H123.974V183H125.702V174.972H129.194V173.46ZM140.853 173.37C139.449 173.37 138.225 173.91 137.451 174.972V173.46H135.795V186.492H137.523V181.56C138.315 182.586 139.503 183.108 140.853 183.108C143.643 183.108 145.677 181.164 145.677 178.23C145.677 175.314 143.643 173.37 140.853 173.37ZM140.709 181.596C138.891 181.596 137.505 180.264 137.505 178.23C137.505 176.214 138.891 174.882 140.709 174.882C142.545 174.882 143.931 176.214 143.931 178.23C143.931 180.264 142.545 181.596 140.709 181.596ZM154.746 173.46L151.452 181.092L148.122 173.46H146.322L150.534 182.982L150.228 183.648C149.76 184.746 149.238 185.124 148.41 185.124C147.762 185.124 147.168 184.872 146.7 184.422L145.962 185.718C146.556 186.294 147.492 186.6 148.41 186.6C149.868 186.6 150.966 185.97 151.812 183.954L156.438 173.46H154.746ZM165.119 183H167.153L163.283 178.05L166.901 173.46H165.047L161.951 177.492H159.935V173.46H158.207V183H159.935V178.968H161.915L165.119 183ZM168.965 183H170.549L176.381 176.052V183H178.109V173.46H176.543L170.693 180.408V173.46H168.965V183Z" fill="black" fill-opacity="0.5"/>
</svg>
